<?xml version="1.0" encoding="UTF-8"?><svg xmlns="http://www.w3.org/2000/svg" xmlns:xlink="http://www.w3.org/1999/xlink" viewBox="0 0 347.45674 372.41566"><defs><style>.f{fill:url(#e);}.g{fill:none;}.h{fill:#f96e19;}.i{fill:#031c2c;}.j{fill:#ffaf0b;}.k{fill:#fff;}.l{fill:#0fdb9a;}.m{fill:#078787;}.n{clip-path:url(#c);}</style><clipPath id="c"><path class="g" d="M311.0405,183.52485l-130.8463,68.45475c-4.20018,2.19741-9.21689,2.168-13.39102-.0785L36.76847,181.91697c-10.08626-5.42838-10.00128-19.92494,.14793-25.23469L167.7627,88.22752c4.20018-2.19741,9.21689-2.168,13.39102,.0785l130.03472,69.98413c10.08626,5.42838,10.00128,19.92494-.14793,25.23469Z"/></clipPath><linearGradient id="e" x1="0" y1="98.6885" x2="345.55588" y2="98.6885" gradientTransform="matrix(1, 0, 0, 1, 0, 0)" gradientUnits="userSpaceOnUse"><stop offset="0" stop-color="#05d6f2"/><stop offset="1" stop-color="#1ab3e9"/></linearGradient></defs><g id="a"><path class="i" d="M334.36831,289.4692l-151.66704,80.4835c-6.18845,3.28396-13.60294,3.28396-19.79139,0L11.24284,289.4692c-14.95361-7.93527-14.95361-29.36059,0-37.29586l151.66704-80.4835c6.18845-3.28396,13.60294-3.28396,19.79139,0l151.66704,80.4835c14.95361,7.93527,14.95361,29.36059,0,37.29586Z"/><path class="i" d="M336.24153,246.93313l-151.66704,80.4835c-6.18845,3.28396-13.60294,3.28396-19.79139,0L13.11606,246.93313c-14.95361-7.93527-14.95361-29.36059,0-37.29586l151.66704-80.4835c6.18845-3.28396,13.60294-3.28396,19.79139,0l151.66704,80.4835c14.95361,7.93527,14.95361,29.36059,0,37.29586Z"/><path class="m" d="M309.94395,266.25532l-130.44275,69.22063c-4.18723,2.22199-9.20402,2.22199-13.39125,0L35.6672,266.25532c-10.11791-5.36916-10.11791-19.86596,0-25.23512l130.44275-69.22063c4.18723-2.22199,9.20402-2.22199,13.39125,0l130.44275,69.22063c10.11791,5.36916,10.11791,19.86596,0,25.23512Z"/><path class="l" d="M311.19276,241.52716l-130.44275,69.22063c-4.18723,2.22199-9.20402,2.22199-13.39125,0L36.91601,241.52716c-10.11791-5.36916-10.11791-19.86596,0-25.23512l130.44275-69.22063c4.18723-2.22199,9.20402-2.22199,13.39125,0l130.44275,69.22063c10.11791,5.36916,10.11791,19.86596,0,25.23512Z"/><path class="i" d="M334.99271,203.84897l-151.66704,80.4835c-6.18845,3.28396-13.60294,3.28396-19.79139,0L11.86725,203.84897c-14.95361-7.93527-14.95361-29.36059,0-37.29586L163.53429,86.06961c6.18845-3.28396,13.60294-3.28396,19.79139,0l151.66704,80.4835c14.95361,7.93527,14.95361,29.36059,0,37.29586Z"/></g><g id="b"><path class="j" d="M309.94395,182.8328l-130.44275,69.22063c-4.18723,2.22199-9.20402,2.22199-13.39125,0L35.6672,182.8328c-10.11791-5.36916-10.11791-19.86596,0-25.23512L166.10995,88.37705c4.18723-2.22199,9.20402-2.22199,13.39125,0l130.44275,69.22063c10.11791,5.36916,10.11791,19.86596,0,25.23512Z"/><g class="n"><path class="h" d="M330.70853,180.60256l-130.64508,68.83799c-4.19373,2.20971-9.21049,2.195-13.39119-.03925L56.43296,179.79862c-10.10213-5.39879-10.05964-19.89554,.07397-25.23502L187.15201,85.72561c4.19373-2.20971,9.21049-2.195,13.39119,.03925l130.23929,69.60268c10.10213,5.39879,10.05964,19.89554-.07397,25.23502Z"/></g><path class="i" d="M335.56186,152.18362l-151.66704,80.5412c-6.18845,3.28631-13.60294,3.28631-19.79139,0L12.43639,152.18362c-14.95361-7.94096-14.95361-29.38165,0-37.3226L164.10343,34.31982c6.18845-3.28631,13.60294-3.28631,19.79139,0l151.66704,80.5412c14.95361,7.94096,14.95361,29.38165,0,37.3226Z"/></g><g id="d"><path class="f" d="M334.34067,116.80304l-151.66704,78.18143c-6.18845,3.19003-13.60294,3.19003-19.79139,0L11.21521,116.80304c-14.95361-7.7083-14.95361-28.5208,0-36.22909L162.88224,2.39252c6.18845-3.19003,13.60294-3.19003,19.79139,0l151.66704,78.18143c14.95361,7.7083,14.95361,28.5208,0,36.22909Z"/><path class="k" d="M270.06741,107.17977l-92.19428,48.92373c-2.81739,1.49507-6.19295,1.49507-9.01033,0l-92.19428-48.92373c-6.80786-3.61265-6.80786-13.36686,0-16.97952l92.19428-48.92373c2.81739-1.49507,6.19295-1.49507,9.01033,0l92.19428,48.92373c6.80786,3.61265,6.80786,13.36686,0,16.97952Z"/></g></svg>